<?xml version="1.0" encoding="UTF-8"?>
<svg xmlns="http://www.w3.org/2000/svg" xmlns:xlink="http://www.w3.org/1999/xlink" width="937.9pt" height="309.1pt" viewBox="0 0 937.9 309.1" version="1.1">
<defs>
<clipPath id="clip1">
  <path d="M 0 0 L 937.898438 0 L 937.898438 309.101563 L 0 309.101563 Z M 0 0 "/>
</clipPath>
</defs>
<g id="surface1">
<g clip-path="url(#clip1)" clip-rule="nonzero">
<path style=" stroke:none;fill-rule:evenodd;fill:rgb(10.594177%,9.812927%,9.423828%);fill-opacity:1;" d="M 367.804688 69.214844 C 383.808594 71.933594 403.472656 72.9375 413.640625 77.535156 L 413.640625 58.875 C 413.613281 42.035156 390.332031 39.726563 390.289063 39.710938 L 346.527344 32.636719 L 347.042969 47.015625 C 347.320313 46.960938 345.007813 68.355469 367.804688 69.214844 Z M 360.65625 90.964844 C 317.144531 87.664063 320.878906 54.558594 320.878906 39.398438 L 320.894531 -0.0507813 L 400.144531 16.601563 C 400.15625 16.601563 439.457031 21.953125 439.300781 69.269531 L 439.300781 118.894531 C 429.949219 101.332031 397.792969 94.027344 388.363281 94.027344 C 388.363281 94.027344 374.046875 91.613281 360.65625 90.964844 Z M 507.363281 73.347656 C 516.542969 72.964844 516.644531 65.714844 516.671875 62.664063 L 516.738281 52.996094 L 487.011719 59.480469 C 483.988281 60.378906 475.429688 59.109375 475.3125 69.175781 L 474.28125 79.289063 C 474.28125 79.289063 483.589844 74.339844 507.363281 73.347656 Z M 517 92.414063 L 490.378906 94.648438 C 467.824219 94.9375 451.222656 113.480469 451.222656 113.480469 L 453.402344 76.277344 C 453.546875 39.222656 474.957031 38.640625 481.714844 37.203125 L 537.511719 25.855469 L 538.078125 55.917969 C 538.078125 69.265625 536.214844 89.257813 517 92.414063 Z M 706.886719 265.9375 L 710.890625 265.644531 L 712.488281 265.644531 C 715.972656 265.449219 718.523438 264.601563 720.171875 263.136719 C 721.851563 261.550781 722.988281 259.730469 723.578125 257.667969 L 723.578125 244.675781 L 646.351563 244.675781 L 646.429688 265.84375 Z M 620.535156 223.125 L 749.265625 223.125 L 749.265625 258.554688 C 748.75 265.25 745.265625 271.550781 738.792969 277.453125 C 732.085938 283.554688 725.152344 286.910156 717.957031 287.5 L 739.519531 309.039063 L 704.722656 309.039063 L 683.183594 287.636719 L 646.429688 287.660156 L 646.351563 309.039063 L 620.535156 309.039063 Z M 172.210938 308.839844 L 142.535156 308.839844 L 142.535156 234.144531 L 172.210938 234.144531 Z M 142.546875 199.925781 L 172.21875 199.925781 L 172.21875 223.632813 L 142.546875 223.632813 Z M 845.109375 309.050781 C 854.472656 309.050781 864.800781 305.707031 876.089844 299.015625 C 887.238281 292.4375 893.03125 281.210938 893.496094 265.367188 L 893.496094 222.882813 L 813.230469 222.882813 C 803.894531 222.882813 793.582031 226.222656 782.261719 232.917969 C 771.167969 239.496094 765.332031 250.722656 764.84375 266.550781 L 764.84375 309.050781 Z M 863.425781 244.722656 L 863.425781 264.785156 C 863.425781 273.542969 861.152344 279.441406 856.640625 282.480469 C 852.003906 285.652344 844.625 287.207031 834.492188 287.207031 L 794.941406 287.207031 L 794.941406 267.148438 C 794.941406 258.390625 797.210938 252.488281 801.753906 249.4375 C 806.351563 246.28125 813.722656 244.722656 823.863281 244.722656 Z M 604.90625 308.953125 L 476.554688 308.953125 L 476.554688 266.5625 C 477.042969 250.769531 482.839844 239.585938 493.917969 233.007813 C 505.210938 226.339844 515.527344 222.996094 524.847656 222.996094 L 605.035156 222.996094 L 605.035156 244.789063 L 535.441406 244.789063 C 525.339844 244.789063 517.980469 246.359375 513.332031 249.5 C 508.855469 252.539063 506.582031 258.429688 506.582031 267.144531 L 506.582031 287.179688 L 579.007813 287.179688 L 579.007813 275.863281 L 555.144531 275.863281 L 555.144531 258.480469 L 604.929688 258.480469 Z M 434.984375 244.769531 L 434.984375 266.003906 L 362.441406 266.003906 C 362.441406 258.132813 364.699219 252.625 369.230469 249.484375 C 373.746094 246.339844 381.113281 244.769531 391.339844 244.769531 Z M 362.441406 287.675781 L 435.273438 287.675781 L 435.273438 309.042969 L 461.0625 309.042969 L 461.0625 222.953125 L 380.734375 222.953125 C 371.398438 222.953125 361.070313 226.296875 349.765625 232.976563 C 338.671875 239.554688 332.863281 250.765625 332.371094 266.585938 L 332.371094 309.042969 L 362.441406 309.042969 Z M 188.195313 276.574219 L 286.742188 276.574219 C 286.742188 277.457031 284.472656 279.425781 279.953125 282.472656 C 275.34375 285.632813 267.949219 287.199219 257.820313 287.199219 L 188.195313 287.199219 L 188.195313 309.019531 L 268.4375 309.019531 C 277.789063 309.019531 288.117188 305.691406 299.433594 298.996094 C 310.539063 292.40625 316.339844 281.191406 316.824219 265.359375 L 316.824219 255.335938 L 217.703125 255.335938 C 217.898438 254.941406 218.585938 254.253906 219.761719 253.261719 C 221.042969 252.285156 222.8125 251.003906 225.070313 249.433594 C 229.691406 246.289063 237.074219 244.707031 247.207031 244.707031 L 316.824219 244.707031 L 316.824219 222.890625 L 236.585938 222.890625 C 227.238281 222.890625 216.921875 226.21875 205.605469 232.914063 C 194.496094 239.492188 188.6875 250.714844 188.195313 266.546875 Z M 452.496094 179.828125 L 452.574219 152.785156 C 453.0625 136.183594 458.976563 124.417969 470.285156 117.511719 C 481.796875 110.5 492.296875 106.984375 501.808594 106.984375 L 560.175781 106.984375 Z M 533.84375 194.660156 L 472.753906 194.660156 L 583.46875 119.96875 L 583.46875 151.554688 C 582.957031 168.15625 577.066406 179.910156 565.75 186.828125 C 554.246094 193.839844 550.273438 194.660156 533.84375 194.660156 Z M 923.964844 222.417969 C 931.671875 222.417969 937.914063 228.664063 937.914063 236.371094 C 937.914063 244.054688 931.640625 250.285156 923.964844 250.285156 C 916.304688 250.285156 910.046875 244.035156 910.046875 236.371094 C 910.046875 228.6875 916.269531 222.417969 923.964844 222.417969 Z M 923.964844 225.378906 C 917.910156 225.378906 913.035156 230.332031 913.035156 236.371094 C 913.035156 242.417969 917.917969 247.3125 923.964844 247.3125 C 930.015625 247.3125 934.96875 242.4375 934.96875 236.371094 C 934.96875 230.3125 930.023438 225.378906 923.964844 225.378906 Z M 928.308594 236.066406 C 929.375 236.671875 929.816406 237.519531 929.976563 239.03125 L 930.191406 240.6875 C 930.320313 241.792969 930.40625 242.945313 930.796875 244 L 931.03125 244.632813 L 927.109375 244.632813 L 927.019531 244.277344 C 926.707031 243.019531 926.519531 241.753906 926.441406 240.46875 C 926.390625 240.015625 926.269531 238.414063 925.859375 238.074219 C 925.472656 237.714844 924.199219 237.660156 923.699219 237.660156 L 921.515625 237.660156 L 921.515625 244.632813 L 917.894531 244.632813 L 917.894531 228.097656 L 924.148438 228.097656 C 925.710938 228.097656 927.097656 228.167969 928.535156 228.898438 C 929.839844 229.660156 930.574219 231.007813 930.574219 232.515625 C 930.574219 234.34375 929.710938 235.371094 928.308594 236.066406 Z M 921.515625 234.648438 L 923.699219 234.648438 C 925.109375 234.648438 926.847656 234.558594 926.847656 232.777344 C 926.847656 232.164063 926.5625 231.628906 925.964844 231.386719 C 925.210938 231.050781 924.574219 231.070313 923.75 231.070313 L 921.515625 231.070313 Z M 357.976563 194.65625 C 341.535156 194.65625 337.574219 193.835938 326.070313 186.824219 C 314.765625 179.917969 308.863281 168.152344 308.363281 151.550781 L 308.363281 106.996094 L 390.027344 106.996094 C 399.519531 106.996094 410.03125 110.496094 421.535156 117.507813 C 432.839844 124.414063 438.757813 136.179688 439.257813 152.78125 L 439.351563 194.65625 Z M 335.894531 129.878906 L 335.894531 149.171875 C 335.894531 157.589844 338.261719 163.253906 343.015625 166.183594 C 347.863281 169.207031 355.601563 170.710938 366.214844 170.710938 L 407.695313 170.710938 L 407.695313 151.433594 C 407.695313 143.019531 405.320313 137.34375 400.566406 134.425781 C 395.734375 131.398438 387.996094 129.878906 377.363281 129.878906 Z M 26.628906 287.035156 L 71.953125 287.035156 C 82.570313 287.035156 90.214844 285.449219 94.917969 282.308594 C 99.621094 279.164063 101.957031 273.65625 101.957031 265.800781 L 101.957031 244.671875 L 26.628906 244.671875 Z M 0.0859375 308.878906 L 0.0859375 222.804688 L 102.5625 222.804688 C 120.023438 222.804688 128.511719 237.761719 128.511719 245.253906 L 128.511719 265.257813 C 128.023438 281.082031 122.476563 292.277344 111.371094 298.871094 C 100.082031 305.550781 89.753906 308.878906 80.417969 308.878906 Z M 0.0859375 308.878906 "/>
</g>
</g>
</svg>
